<?xml version="1.0" encoding="utf-8"?><!-- Uploaded to: SVG Repo, www.svgrepo.com, Generator: SVG Repo Mixer Tools -->
<svg width="800px" height="800px" viewBox="0 0 36 36" xmlns="http://www.w3.org/2000/svg" xmlns:xlink="http://www.w3.org/1999/xlink" aria-hidden="true" role="img" class="iconify iconify--twemoji" preserveAspectRatio="xMidYMid meet"><path fill="#BB1A34" d="M33.207 19.773l-8.868-8.855L11.105 24.54l8.684 8.685l.001-.001A9.472 9.472 0 0 0 26.5 36c5.246 0 9.5-4.254 9.5-9.5a9.47 9.47 0 0 0-2.793-6.727z"></path><path fill="#FDCB58" d="M15.921 2.513A9.453 9.453 0 0 0 9.5 0A9.5 9.5 0 0 0 0 9.5c0 2.479.958 4.73 2.514 6.421l-.014.014l8.605 8.605l13.234-13.622l-8.418-8.405z"></path></svg>